<?xml version="1.0" encoding="UTF-8"?>
<svg id="Layer_1" xmlns="http://www.w3.org/2000/svg" xmlns:xlink="http://www.w3.org/1999/xlink" version="1.1" viewBox="0 0 1295.38 568.29">
  <!-- Generator: Adobe Illustrator 30.3.0, SVG Export Plug-In . SVG Version: 2.1.3 Build 182)  -->
  <defs>
    <style>
      .st0 {
        fill: #fff;
      }

      .st1 {
        clip-path: url(#clippath);
      }
    </style>
    <clipPath id="clippath">
      <polygon class="st0" points="579.5 59.08 27.09 59.04 77.16 109.32 529.26 109.32 529.26 322.81 328.33 448.4 127.39 322.81 127.39 159.55 102.01 134.43 77.16 109.32 77.16 347.93 328.33 511.19 579.5 347.93 579.5 59.08"/>
    </clipPath>
  </defs>
  <g>
    <polygon class="st0" points="579.5 59.08 27.09 59.04 77.16 109.32 529.26 109.32 529.26 322.81 328.33 448.4 127.39 322.81 127.39 159.55 102.01 134.43 77.16 109.32 77.16 347.93 328.33 511.19 579.5 347.93 579.5 59.08"/>
    <g class="st1">
      <rect class="st0" x="74.38" y="6.6" width="457.82" height="557.04" transform="translate(15.07 585.45) rotate(-89.41)"/>
    </g>
  </g>
  <g>
    <path class="st0" d="M408.14,350.57c0,19.12-15.5,34.61-34.61,34.61s-34.61-15.5-34.61-34.61,15.5-34.61,34.61-34.61,34.61,15.5,34.61,34.61"/>
    <path class="st0" d="M317.74,350.57c0,19.12-15.5,34.61-34.61,34.61s-34.61-15.5-34.61-34.61,15.5-34.61,34.61-34.61,34.61,15.5,34.61,34.61"/>
    <path class="st0" d="M230.01,176.68c0,19.12-15.5,34.61-34.61,34.61s-34.61-15.5-34.61-34.61,15.5-34.61,34.61-34.61,34.61,15.5,34.61,34.61"/>
    <path class="st0" d="M458.38,232.18c-32.32,0-51.62-20-51.62-52.43,0-19.12-15.5-34.62-34.62-34.62s-34.61,15.5-34.61,34.62c0,.07.01.13.01.2s-.01.13-.01.2c0,31.21-20.92,52.43-53.98,52.43-19.12,0-34.61,15.5-34.61,34.61s15.5,34.61,34.61,34.61,34.61-15.5,34.61-34.61c0-33.57,21.17-53.89,54.1-53.89.55,0,1.78.1,2.31.07.71-.03.62.06,1.32-.01,30.52,0,47.86,22.08,47.86,53.42,0,19.12,15.5,34.61,34.61,34.61s34.61-15.5,34.61-34.61-15.5-34.61-34.61-34.61"/>
    <path class="st0" d="M497.28,176.68c0,19.12-15.5,34.61-34.61,34.61s-34.61-15.5-34.61-34.61,15.5-34.61,34.61-34.61,34.61,15.5,34.61,34.61"/>
    <path class="st0" d="M373.43,232.18c-32.32,0-54.11-20-54.11-52.43,0-19.12-15.5-34.62-34.62-34.62s-34.61,15.5-34.61,34.62c0,.07.01.13.01.2s-.01.13-.01.2c0,31.21-18.56,52.43-51.62,52.43-19.12,0-34.61,15.5-34.61,34.61s15.5,34.61,34.61,34.61,34.61-15.5,34.61-34.61c0-33.57,18.81-53.67,51.74-53.67.55,0,1.78.1,2.31.08.71-.04.62.06,1.32-.02,30.52,0,50.36,21.86,50.36,53.2,0,19.12,15.5,34.61,34.61,34.61s34.61-15.5,34.61-34.61-15.5-34.61-34.61-34.61"/>
    <rect class="st0" x="620.71" y="74.97" width="34.02" height="118.63"/>
    <path class="st0" d="M790.81,193.6h-36.06l-5.1-15.49h-47.46l-5.1,15.49h-34.7l43.03-118.63h40.83l44.57,118.63ZM719.88,123.29l-8.85,27.32h29.43l-9.01-27.32c-3.18-9.55-5.11-15.83-5.78-18.83-2.84,9.22-4.77,15.49-5.79,18.83"/>
    <path class="st0" d="M874.33,119.96l11.57-44.98h52.05v118.63h-32.32v-33.66c0-21.77.34-40.26,1.02-55.48-2.5,9.77-4.88,18.55-7.15,26.33l-17.52,62.81h-27.56l-17.52-62.81c-2.27-7.78-4.65-16.55-7.15-26.33.68,15.22,1.02,33.71,1.02,55.48v33.66h-32.32v-118.63h52.05l11.57,44.98c2.95,11.55,4.99,20.05,6.13,25.49,1.13-5.44,3.17-13.94,6.12-25.49"/>
    <polygon class="st0" points="618.33 226.64 709.05 226.64 709.05 252.15 678.32 252.15 678.32 328.69 649.05 328.69 649.05 252.15 618.33 252.15 618.33 226.64"/>
    <path class="st0" d="M783.38,294.58v4.73h-55.31c1.75,8.31,6.78,12.47,15.07,12.47,6.25,0,10.68-2.15,13.32-6.45h25.17c-2.05,7.93-6.58,14.09-13.61,18.49-7.12,4.4-15.42,6.59-24.88,6.59-12.1,0-21.9-3.53-29.41-10.6-7.51-7.07-11.27-16.43-11.27-28.09s3.7-21.12,11.12-28.09c7.41-7.07,17.17-10.61,29.27-10.61s21.9,3.68,29.41,11.04c7.41,7.36,11.12,17.53,11.12,30.53M742.56,271.65c-8,0-12.83,4.01-14.48,12.04h29.41c-1.76-8.03-6.73-12.04-14.93-12.04"/>
    <path class="st0" d="M830.94,330.41c-12.29,0-22.05-3.53-29.26-10.6-7.32-7.07-10.97-16.43-10.97-28.09s3.66-21.26,10.97-28.23c7.12-6.97,16.88-10.46,29.26-10.46,10.83,0,19.71,2.75,26.63,8.24,6.92,5.5,10.88,12.92,11.85,22.29h-26.48c-1.07-6.31-5.07-9.46-12-9.46-8.78,0-13.17,5.88-13.17,17.63s4.39,17.49,13.17,17.49c7.71,0,11.9-3.63,12.58-10.89h26.34c-.59,9.84-4.39,17.63-11.41,23.36-7.12,5.83-16.29,8.74-27.51,8.74"/>
    <path class="st0" d="M927.8,253.01c7.81,0,14.1,2.42,18.88,7.24,4.78,4.83,7.17,11.68,7.17,20.57v47.87h-26.92v-42.28c0-7.36-3.42-11.04-10.24-11.04-3.42,0-6.25,1.07-8.49,3.23-2.25,2.15-3.37,5.18-3.37,9.1v40.99h-26.92v-102.05h26.92v37.12c6.05-7.17,13.71-10.75,22.97-10.75"/>
    <path class="st0" d="M1004.92,226.64h45.51c18.05,0,31.56,4.59,40.53,13.76,8.98,9.27,13.46,21.69,13.46,37.26s-4.48,28-13.46,37.26c-8.97,9.17-22.48,13.76-40.53,13.76h-45.51v-102.05ZM1034.19,304.61h15.66c16.1,0,24.14-8.98,24.14-26.95s-8.05-26.95-24.14-26.95h-15.66v53.89Z"/>
    <path class="st0" d="M1190.31,328.69h-27.07c-1.07-2.29-1.71-4.82-1.9-7.6-5.18,6.21-13.17,9.32-24,9.32-8.29,0-15-2.05-20.12-6.16-5.12-4.11-7.68-9.75-7.68-16.91s2.39-12.35,7.17-16.12c4.78-3.78,12.44-6.09,22.97-6.95l12.15-1c3.22-.29,5.54-.91,6.95-1.87,1.41-.95,2.12-2.39,2.12-4.3,0-3.92-3.17-5.87-9.51-5.87-3.9,0-6.66.55-8.27,1.65-1.61,1.1-2.61,3.18-3,6.23h-26.63c.68-8.79,4.12-15.33,10.31-19.63,6.19-4.3,15.48-6.45,27.87-6.45,23.71,0,35.55,7.74,35.55,23.22v39.13c0,6.21,1.03,10.66,3.07,13.33M1146.56,313.5c9.56,0,14.34-4.63,14.34-13.9v-4.3c-1.08,1.43-3.32,2.39-6.73,2.87l-8.64.86c-5.76.57-8.64,3.01-8.64,7.31,0,2.2.85,3.94,2.56,5.23,1.71,1.29,4.07,1.94,7.1,1.94"/>
    <path class="st0" d="M1245.04,257.89l.88-3.15h27.51l-25.9,73.96c-3.71,10.6-8.49,18.01-14.34,22.22-5.95,4.11-15.27,6.16-27.95,6.16-2.44,0-5.61-.1-9.51-.29v-20.06h7.46c7.03,0,10.54-2.92,10.54-8.74,0-2.77-1.17-7.36-3.51-13.76l-21.36-59.48h28.83l.88,3.01c5.76,19.97,10.24,36.98,13.46,51.03,2.54-11.47,6.88-28.43,13.02-50.88"/>
  </g>
</svg>