<?xml version="1.0" encoding="UTF-8"?>
<svg id="Layer_1" xmlns="http://www.w3.org/2000/svg" version="1.1" viewBox="0 0 1295.38 568.29">
  <!-- Generator: Adobe Illustrator 30.3.0, SVG Export Plug-In . SVG Version: 2.1.3 Build 182)  -->
  <defs>
    <style>
      .st0 {
        fill: #fff;
      }
    </style>
  </defs>
  <path class="st0" d="M1226.31,127.9c-1.68-1-3.18-1.5-4.52-1.5l-89.35,25.6c5.69-18.07,11.46-36.56,17.32-55.47,5.85-18.9,11.96-37.39,18.33-55.47,0-1.33-.42-2.84-1.26-4.52-.84-1.67-1.92-2.84-3.26-3.51-1.68-.33-3.35-.08-5.02.75-1.68.84-2.85,2.09-3.51,3.77-.34,1.68-.84,3.18-1.51,4.51-.68,1.68-1.26,3.35-1.76,5.02-.5,1.68-1.09,3.85-1.76,6.53-3.35,10.04-7.87,24.1-13.56,42.17-5.69,18.07-11.88,38.33-18.57,60.74l-157.12,44.18c-1.67.68-3.01,1.76-4.02,3.26-1,1.5-1.17,2.93-.5,4.27.67,3.35,2.68,5.02,6.02,5.02h1l149.6-42.17-25.6,82.83c-6.39,21.81-12.11,41.7-17.2,59.74h-.37c-10.71,1.68-21.75,5.69-33.13,12.05-11.38,6.36-22.09,13.89-32.12,22.59-1.01-5.35-1.85-10.04-2.51-14.06-.67-4.01-1.01-7.35-1.01-10.04,0-10.04,3.68-19.58,11.05-28.61,7.36-9.04,21.59-17.4,42.67-25.1,1.67-.67,2.93-1.84,3.76-3.51.83-1.67.92-3.18.25-4.52-.67-1.67-1.84-2.84-3.51-3.51-1.68-.66-3.18-1-4.52-1-12.04,4.35-22.01,9.21-29.87,14.56-7.87,5.36-14.14,10.88-18.82,16.57-4.69,5.69-8.03,11.54-10.04,17.57-.84,2.53-1.47,5.02-1.96,7.49-.54.42-1.07.92-1.55,1.55-13.72,20.75-26.44,34.72-38.15,41.92-11.72,7.2-19.92,9.62-24.6,7.28-5.02-2.34-7.53-7.86-7.53-16.56,0-6.35,1.83-13.89,5.52-22.59l-.5.5c0-.33.08-.67.25-1,.16-.33.25-.67.25-1.01,21.41-8.7,37.81-17.98,49.19-27.86,11.38-9.87,16.57-18.65,15.56-26.35-1-6.36-5.02-9.87-12.05-10.55-3.35-.33-7.53.34-12.55,2.01-5.02,1.69-10.46,4.78-16.32,9.29-5.86,4.52-11.72,10.54-17.57,18.07-5.22,6.71-10.1,14.82-14.65,24.31-.05.02-.1.02-.16.04h-.5l-67.27,11.54,9.54-35.14,5.02-18.57c11.05-10.7,21.33-24.59,30.87-41.67,9.54-17.07,17.57-34.3,24.1-51.7,6.53-17.4,11.21-33.46,14.05-48.19,2.84-14.72,3.43-25.26,1.76-31.63-.68-3.01-1.93-5.1-3.77-6.27-1.85-1.17-3.44-1.92-4.77-2.26-.67-.33-1.68-.42-3.01-.25-1.34.17-3.01,1.09-5.02,2.76-4.35,3.02-9.71,11.8-16.06,26.36-6.36,14.56-13.3,32.71-20.83,54.46-7.53,21.76-15.24,46.11-23.09,73.04-7.87,26.95-15.48,54.3-22.84,82.08l-16.06,2.51c-1,.68-1.92,1.59-2.76,2.76-.83,1.18-1.58,2.1-2.26,2.76,0,2.68,1.34,5.02,4.02,7.02l11.04,6.53c-4.68,18.07-9.04,35.89-13.05,53.47-4.01,17.56-7.61,34.3-10.79,50.2-3.18,15.9-5.85,30.45-8.03,43.68-2.17,13.21-3.59,24.67-4.26,34.39-.67,3.01.67,5.18,4.01,6.53.34.33,1.18.5,2.51.5,1.68,0,3.35-.84,5.02-2.51.68-.68,4.27-5.36,10.79-14.06,6.53-8.7,13.64-19.75,21.33-33.13,7.7-13.39,14.73-28.11,21.09-44.18,6.35-16.06,9.54-31.79,9.54-47.19,0-7.36-.5-13.38-1.51-18.07-1.68-6.69-4.26-13.05-7.78-19.08-3.51-6.02-8.12-12.05-13.8-18.07,0-.33.08-.75.25-1.26.16-.5.25-.91.25-1.25l66.08-12.06c-1.15,2.96-2.04,5.9-2.58,8.79-.83,4.52-1.25,8.78-1.25,12.8,0,6.37,1.34,11.88,4.01,16.57,2.69,4.69,6.19,8.37,10.54,11.05,1.33.67,2.93,1.17,4.77,1.5,1.83.34,4.09.5,6.78.5,8.36,0,18.65-4.43,30.87-13.3,9.06-6.58,18.26-16.07,27.6-28.45.08.7.15,1.39.25,2.1.66,5.02,1.51,10.04,2.51,15.06v2.51c0,.34.08.75.25,1.25.16.5.25.93.25,1.26-9.7,9.37-17.82,18.75-24.35,28.11-6.53,9.37-10.62,16.9-12.3,22.59-1.33,6.36-.5,11.04,2.51,14.05,1.68,1.67,3.85,2.51,6.53,2.51,2.01,0,4.35-.5,7.03-1.5.34,0,.5-.08.5-.25s.17-.25.5-.25l-.5.5c14.4-5.69,23.93-12.71,28.61-21.08,4.68-8.36,7.03-16.9,7.03-25.6,0-3.68-.09-6.86-.25-9.54-.17-2.67-.42-4.84-.75-6.53,8.7-8.36,18.74-15.81,30.12-22.34,9.41-5.4,18.94-9.34,28.58-11.88-1.2,4.32-2.37,8.56-3.49,12.63-6.69,24.44-12.13,45.35-16.32,62.75-4.18,17.4-7.28,31.63-9.29,42.67-2.01,11.05-3.43,19.83-4.27,26.36-.83,6.53-1.08,11.21-.75,14.06.33,2.83.84,4.77,1.5,5.77,1.34,3.35,3.85,5.02,7.53,5.02,10.04,0,22.43-10.21,37.15-30.62,14.72-20.42,34.64-52.21,59.74-95.38,6.35-10.71,12.3-20.66,17.82-29.87,5.53-9.2,9.79-15.81,12.8-19.83.67-.67.58-1.58-.25-2.76-.84-1.17-1.76-2.25-2.76-3.26h.5c-1.68-1-3.44-1.42-5.27-1.25-1.85.17-3.26.92-4.27,2.26v-.5c-3.01,4.01-7.03,10.21-12.05,18.57-5.02,8.37-10.88,18.41-17.57,30.12-4.69,8.03-10.71,18.25-18.07,30.62-7.36,12.38-15.06,24.68-23.09,36.9-8.03,12.21-15.81,23.17-23.34,32.88-7.53,9.7-13.8,16.06-18.82,19.08,0-7.37,2.18-21.08,6.53-41.16,4.35-20.08,10.29-44.34,17.82-72.79,7.53-28.45,16.39-60.16,26.61-95.13,10.21-34.97,21.16-71.04,32.88-108.18l97.39-27.11c1.33-.67,2.51-1.76,3.51-3.26,1.01-1.51,1.51-3.09,1.51-4.77-.68-1.33-1.85-2.51-3.51-3.51ZM951.73,283.02c5.35-4.68,10.37-7.86,15.06-9.54,3.68-1.33,5.85-2.01,6.53-2.01l2.01,2.01c-.68,2.01-3.69,5.69-9.04,11.04-5.36,5.36-15.23,11.89-29.62,19.58l-1.51-1.5c5.69-8.36,11.21-14.89,16.57-19.58ZM886.47,192.16c4.35-13.05,8.45-24.92,12.3-35.64,3.84-10.71,7.36-19.99,10.54-27.86,3.18-7.86,6.1-14.13,8.78-18.82l2.01.5c-.68,6.02-2.18,13.98-4.52,23.85-2.34,9.88-5.36,20.58-9.04,32.13-3.69,11.54-8.2,23.26-13.56,35.14-5.36,11.89-11.22,22.84-17.57,32.88l-2.01-1c4.35-14.39,8.7-28.12,13.05-41.17ZM851.33,381.41v.5c1.01,5.02,1.51,10.04,1.51,15.06,0,9.04-1.43,18.57-4.27,28.61-2.85,10.04-6.44,19.83-10.79,29.37-4.34,9.54-9.11,18.65-14.31,27.36-5.18,8.7-9.95,16.39-14.31,23.09l-1.51-.5c2.68-20.42,6.86-43.26,12.55-68.52,5.7-25.26,11.88-51.46,18.58-78.57,6.35,7.03,10.54,14.9,12.55,23.6ZM991.13,395.21c-3.17,6.53-9.79,11.97-19.83,16.32l-1.51-1.5c1.68-3.68,4.77-8.79,9.29-15.31,4.52-6.53,9.95-13.47,16.32-20.83.33,7.7-1.09,14.81-4.27,21.33Z"/>
  <g>
    <path class="st0" d="M158.89,375.35c-2.62,1.71-6.65,3.34-12.09,4.91-5.44,1.57-11.5,2.36-18.18,2.36-11.93,0-20.9-3.41-26.93-10.22-6.03-6.81-9.04-16.18-9.04-28.11,0-8.91,1.38-17.46,4.13-25.65,2.75-8.19,6.78-15.43,12.09-21.72,5.31-6.29,11.82-11.3,19.56-15.04,7.73-3.73,16.51-5.6,26.34-5.6,6.81,0,13.56,1.11,20.25,3.34l-5.31,11.6c-3.02-1.18-6-2-8.94-2.46-2.95-.46-5.8-.69-8.55-.69-6.95,0-13.27,1.47-18.97,4.42-5.7,2.95-10.58,6.95-14.64,11.99-4.06,5.05-7.21,10.88-9.43,17.49-2.23,6.62-3.34,13.6-3.34,20.93,0,8.65,2,15.46,6,20.44,4,4.98,10.38,7.47,19.16,7.47,2.75,0,5.53-.26,8.35-.79,2.82-.52,5.4-1.14,7.76-1.87,2.36-.72,4.45-1.47,6.29-2.26,1.83-.79,3.21-1.51,4.13-2.16l1.38,11.6Z"/>
    <path class="st0" d="M156.53,403.06c3.54,1.97,7.55,2.95,12.01,2.95,6.7,0,13.26-1.84,19.69-5.5,6.43-3.67,12.4-9.24,17.92-16.71-5.53-17.43-9.88-35.12-13.04-53.07-3.16-17.95-5.01-35.31-5.53-52.09h13.37c.26,6.29.69,13.17,1.29,20.64.59,7.47,1.48,15.27,2.67,23.39,1.19,8.13,2.64,16.41,4.35,24.86,1.71,8.45,3.83,16.68,6.33,24.67,5.88-9.3,11.18-18.7,15.88-28.21,4.71-9.5,8.82-18.44,12.35-26.83,3.53-8.38,6.44-15.95,8.73-22.7,2.29-6.75,3.96-12.02,5-15.82h12.58c-.79,2.75-2.22,7.44-4.31,14.05-2.09,6.62-4.9,14.32-8.43,23.1-3.53,8.78-7.81,18.25-12.84,28.4-5.03,10.16-10.82,20.08-17.36,29.78-10.1,15.07-19.88,26.04-29.33,32.92-9.45,6.88-19.29,10.32-29.52,10.32-2.37,0-4.92-.2-7.68-.59-2.75-.39-5.64-1.38-8.66-2.95l4.53-10.61Z"/>
    <path class="st0" d="M300.95,284.14c3.93-2.62,8.13-4.58,12.59-5.9,4.46-1.31,8.85-1.97,13.18-1.97,11.15,0,19.41,3.41,24.79,10.22,5.37,6.82,8.06,16.05,8.06,27.71,0,8.39-1.44,16.68-4.32,24.86-2.88,8.19-7.14,15.5-12.77,21.92-5.63,6.42-12.64,11.63-21.03,15.63-8.38,4-18.07,6-29.08,6-9.3,0-18.15-1.9-26.53-5.7l35.18-146.83,13.37-2.36-13.45,56.41ZM280.79,368.66c4.71,1.44,9.36,2.16,13.95,2.16,8.51,0,16.01-1.7,22.49-5.11,6.48-3.41,11.89-7.8,16.21-13.17,4.32-5.37,7.6-11.33,9.82-17.89,2.23-6.55,3.34-13.04,3.34-19.46,0-9.43-2.06-16.31-6.18-20.64-4.12-4.32-9.32-6.49-15.59-6.49-4.18,0-8.66.95-13.43,2.85-4.77,1.9-9.44,4.62-14.02,8.16l-16.59,69.58Z"/>
    <path class="st0" d="M457.45,302.42c0,7.34-1.8,13.3-5.41,17.89-3.61,4.59-8.65,8.23-15.13,10.91-6.49,2.69-14.28,4.62-23.39,5.8-9.11,1.18-19.23,2.03-30.37,2.56v4.13c0,3.8.39,7.34,1.18,10.61.79,3.28,2.23,6.13,4.32,8.55,2.09,2.43,5.01,4.36,8.75,5.8,3.73,1.44,8.55,2.16,14.45,2.16,4.59,0,9.2-.65,13.86-1.97,4.65-1.31,9.07-3.27,13.27-5.9l1.38,11.79c-4.46,2.49-9.37,4.42-14.74,5.8-5.37,1.38-10.81,2.06-16.31,2.06-7.21,0-13.27-.92-18.18-2.75-4.91-1.83-8.91-4.39-11.99-7.67-3.08-3.27-5.28-7.21-6.59-11.79-1.31-4.58-1.97-9.63-1.97-15.13,0-8.38,1.28-16.71,3.83-24.96,2.56-8.25,6.32-15.66,11.3-22.21,4.98-6.55,11.11-11.82,18.38-15.82,7.27-4,15.56-5.99,24.86-5.99s16.22,2.39,21.13,7.17c4.91,4.79,7.37,11.11,7.37,18.97ZM427.77,287.88c-5.24,0-10.16,1.08-14.74,3.24-4.59,2.16-8.72,5.08-12.38,8.75-3.67,3.67-6.85,7.93-9.53,12.78-2.69,4.85-4.69,9.96-6,15.33,11.14-.26,20.51-.98,28.11-2.16,7.6-1.18,13.73-2.82,18.38-4.91,4.65-2.09,7.96-4.62,9.93-7.57,1.97-2.95,2.95-6.32,2.95-10.12,0-5.11-1.54-8.94-4.62-11.5-3.08-2.56-7.11-3.83-12.09-3.83Z"/>
    <path class="st0" d="M484.84,283.16c4.97-1.97,10.44-3.6,16.39-4.91,5.95-1.31,11.81-1.97,17.57-1.97,3.01,0,5.89.2,8.64.59,2.75.39,5.37,1.05,7.85,1.97l-3.34,11.6c-5.11-1.57-10.34-2.36-15.71-2.36-3.41,0-6.81.26-10.21.79-3.4.53-6.81,1.31-10.21,2.36l-21.42,89.04h-12.74l23.19-97.1Z"/>
    <path class="st0" d="M562.61,359.43c6.68,0,11.27-.95,13.76-2.85,2.49-1.9,3.73-3.96,3.73-6.19,0-1.44-.23-2.68-.69-3.73-.46-1.05-1.21-2.03-2.26-2.95-1.05-.92-2.49-1.87-4.32-2.85-1.84-.98-4.2-2.13-7.08-3.44-3.28-1.44-6.36-2.98-9.24-4.62-2.88-1.64-5.41-3.6-7.57-5.9-2.16-2.29-3.87-4.91-5.11-7.86-1.25-2.95-1.87-6.45-1.87-10.51,0-10.62,3.9-19,11.7-25.16,7.79-6.16,19.16-9.24,34.1-9.24,7.08,0,13.37.79,18.87,2.36,5.5,1.57,9.96,3.28,13.37,5.11l-10.02,21.82c-2.75-1.44-6.29-2.82-10.61-4.13-4.32-1.31-8.58-1.97-12.78-1.97-1.84,0-3.64.1-5.4.29-1.77.2-3.41.62-4.91,1.28-1.51.66-2.72,1.57-3.64,2.75-.92,1.18-1.38,2.75-1.38,4.72,0,2.62,1.01,4.59,3.05,5.9,2.03,1.31,4.88,2.88,8.55,4.72,5.11,2.49,9.37,4.78,12.78,6.88,3.41,2.1,6.12,4.32,8.16,6.68,2.03,2.36,3.5,5.05,4.42,8.06.92,3.02,1.38,6.55,1.38,10.61s-.88,8.32-2.65,12.38c-1.77,4.06-4.55,7.67-8.35,10.81-3.8,3.14-8.65,5.7-14.55,7.67-5.9,1.97-12.97,2.95-21.23,2.95-5.11,0-9.73-.33-13.86-.98-4.13-.66-7.76-1.47-10.91-2.46-3.14-.98-5.8-2-7.96-3.05-2.16-1.05-3.83-1.9-5.01-2.56l10.02-22.41c2.23,1.31,5.7,2.95,10.42,4.91,4.72,1.97,10.42,2.95,17.1,2.95Z"/>
    <path class="st0" d="M627.87,339.77c0-8.38,1.47-16.51,4.42-24.37,2.95-7.86,7.11-14.84,12.48-20.93,5.37-6.09,11.89-11.01,19.56-14.74,7.67-3.73,16.15-5.6,25.45-5.6,4.59,0,8.84.66,12.78,1.97,3.93,1.31,7.37,3.21,10.32,5.7,2.95,2.49,5.24,5.54,6.88,9.14,1.64,3.61,2.46,7.7,2.46,12.28,0,7.34-1.64,13.56-4.91,18.67-3.28,5.11-7.83,9.27-13.66,12.48-5.83,3.21-12.75,5.54-20.74,6.98-7.99,1.44-16.71,2.16-26.14,2.16.92,5.5,2.91,9.4,5.99,11.69,3.08,2.29,7.96,3.44,14.64,3.44,4.19,0,8.45-.36,12.78-1.08,4.32-.72,8.38-1.8,12.19-3.24l2.16,23c-3.67,1.44-8.35,2.75-14.05,3.93-5.7,1.18-11.89,1.77-18.57,1.77-8.13,0-14.97-1.15-20.54-3.44-5.57-2.29-10.09-5.41-13.56-9.34-3.47-3.93-5.99-8.52-7.57-13.76-1.57-5.24-2.36-10.81-2.36-16.71ZM685.07,297.31c-6.68,0-12.55,2.39-17.59,7.17-5.05,4.78-8.35,11.1-9.93,18.97,8.12-.26,14.67-.95,19.66-2.06,4.98-1.11,8.84-2.46,11.6-4.03s4.58-3.27,5.5-5.11c.91-1.83,1.38-3.67,1.38-5.5,0-6.29-3.54-9.43-10.61-9.43Z"/>
    <path class="st0" d="M730.08,338.98c0-8.91,1.44-17.3,4.32-25.16,2.88-7.86,7.01-14.74,12.38-20.64,5.37-5.9,11.89-10.55,19.56-13.96,7.67-3.41,16.22-5.11,25.65-5.11,5.9,0,11.17.56,15.82,1.67,4.65,1.11,8.88,2.59,12.68,4.42l-10.03,22.8c-2.62-1.05-5.34-2-8.16-2.85-2.82-.85-6.26-1.28-10.32-1.28-9.83,0-17.56,3.31-23.19,9.93-5.64,6.62-8.45,15.63-8.45,27.03,0,6.68,1.44,12.09,4.32,16.22,2.88,4.13,8.19,6.19,15.92,6.19,3.8,0,7.47-.39,11.01-1.18,3.54-.79,6.68-1.77,9.43-2.95l2.16,23.39c-3.67,1.44-7.7,2.72-12.09,3.83-4.39,1.11-9.73,1.67-16.02,1.67-8.13,0-15.01-1.18-20.64-3.54-5.64-2.36-10.29-5.53-13.95-9.53-3.67-4-6.32-8.68-7.96-14.05-1.64-5.37-2.46-11.01-2.46-16.91Z"/>
  </g>
</svg>